<svg xmlns="http://www.w3.org/2000/svg" width="512" height="512" viewBox="0 0 512 512"><g stroke-width="1.117"><path d="M371.16 472.01c.076-3.138.817-5.97 3.556-7.917 1.747-1.25 3.822-1.681 5.866-1.663 1.082.028 2.36.741 3.181 1.528 1.69 1.63 2.462 3.78 2.891 6.088 1.217 6.503-5.436 10.01-9.963 9.283-3.553-.596-5.62-3.337-5.53-7.32z" clip-rule="evenodd" fill-rule="evenodd"/><path d="M500.917 210.882s8.387 34.714-27.365 63.449c0 0-13.767 11.07-19.457 12.561 0 0 1.637-4.332 4.484-35.909 2.84-31.562-13.92-43.387-13.92-43.387s24.847 32.167-14.06 87.827c0 0-4.784 6.74-10.922 8.084l-.747.315c8.686-70.794-30.374-75.132-30.374-75.132s36.058 23.038 9.278 82.596l-2.244 1.65c0-58.064-25.747-61.353-25.747-61.353s25.145 16.019 4.496 86.198c0 0 1.051-41.451-26.045-53.733 0 0 19.9 15.412 11.84 57.014l-7.199 27.992c-.928 3.108-1.902 6.173-3.858 8.81-.295.411-.534.962-.936 1.147-1.736.843-3.482 1.67-5.3 2.303-2.384.835-4.62-.687-5.098-3.186a36.278 36.278 0 0 1-.572-5.128c-.145-2.861-.203-5.734-.203-8.6 0-17.836 14.638-28.117 14.638-28.117-21.077-1.95-26.357 17.644-26.357 17.644-.292-18.851-19.294-29.022-19.294-29.022 10.763 11.22 9.123 34.018 9.123 34.018-.4 2.61-1.05 5.21-1.826 7.735-.817 2.655-8.858 13.222-11.784 15.709-2.346 1.994-5.232 3.165-8.396 3.54-1.38.177-2.504-.221-3.618-.966-1.154-.765-1.593-1.973-2.275-3.033-7.853-11.539-17.055-30.036-17.055-30.036-42.565-74.795-13.928-141.813-13.928-141.813s-26.993 20.844-24.611 92.104l-.159.114c-15.476-21.605-22.808-59.988-22.808-59.988-1.323-5.348-5.065-24.028-5.726-27.98-.5-3.187-4.032-34.484-3.863-36.45-1.152-15.857 3.598-34.24 3.598-34.24-10.333 10.55-12.602 33.903-12.797 37.752-.385 7.66-.92 15.333-.453 23.03.209 3.294.323 6.598.552 9.882.21 3.141.429 6.293.82 9.42.367 2.992.955 5.943 1.454 8.918 1.283 7.724 2.463 15.444 3.906 23.12 1.33 7.123 3.159 14.13 5.375 21.028.5 1.558 2.037 6.31 2.037 6.31s-80.878-84.469-41.713-190.112c0 0-33.165 24.844-10.94 137.859 0 0-78.187-105.004-41.39-172.006 0 0-39.363-.38-9.643 129.712 0 0-89.115-70.706-64.28-170.075 0 0-37.722 46.591 6.44 142.558 0 0 12.87 21.168 4.404 42.447-8.467 21.271-59.66 102.706-20.126 163.545 0 0-26.592 20.293-20.314 42.823 0 0 13.436-46.314 51.151-17.133 0 0-31.55 20.834-24.749 53.925.815-.412 8.45-28.346 26.243-35.382 6.245-2.464 11.525-3.706 16.025-4.107 7.242-.466 11.039.837 11.039.837 2.786.77 5.067 1.93 6.995 3.205 0 0-31.214 26.86-30.763 65.76 0 0 21.992-60.907 67.037-54.92 0 0-35.906 46.39-24.982 71.528 0 0 4.185-50.884 59.396-60.901 0 0-23.037 30.366-3.593 56.263 0 0-11.52-47.288 51.03-52.829 62.538-5.535 56.108-3.585 56.108-3.585l3.442 3.738s-26.786 33.609-56.406 34.31c0 0 24.41 12.943 82.304-29.09 2.389-2.158 4.598-4.512 6.781-6.885 1.94-2.11 3.747-4.354 5.607-6.537 4.158-4.84 8.397-9.63 11.404-15.322.623-1.192 1.485-2.25 2.305-3.462.165.297.22.358.227.433.017.481.02.985.02 1.48 0 3.704.72 7.212 2.264 10.615 2.665 5.9 7.31 10.148 12.299 13.836 4.286 3.165 8.954 5.785 14.46 6.758 3.065.535 6.013.72 9.147.72 14.33 0 18.233-14.49 18.233-14.49-2.904 4.853-7.427 5.968-7.427 5.968-7.569 1.154-13.743-1.714-19.204-6.567-1.322-1.174-2.313-2.728-3.392-4.157-.675-.921-.504-1.46.524-2.099 0 0 4.946-2.708 5.55-5.106 0 0 22.68-8.232 31.77 14.374 0 0 5.94 12.853 1.442 18.098 0 0 16.912-7.324 2.101-37.12 0 0 23.497 3.154 22.292 29.489 0 0 8.525-7.333.152-31.576 0 0 16.004 1.653 16.756 23.34 0 0 7.193-7.464-4.937-29.32 0 0-2.239-4.344 1.794-3.752 0 0 16.306 9.59 13.18 24.409 0 0 6.141-7.487-2.239-25.464l-.914-3.273s17.803 6.278 14.06 24.83c0 0 9.577-12.562-2.691-32.464 0 0 16.618 9.271 11.829 23.19 8.015-10.75-.439-30.527-.593-31.168-.769-3.57-1.846-6.352-.108-9.616 1.836-3.49 3.4-7.114 3.758-11.084.64-7.05.026-14.022-1.543-20.932-.79-3.517-1.794-6.9-1.362-10.7a36.731 36.731 0 0 1 2.709-10.51s11.638-20.307 17.031-24.194c5.403-3.895 41.616-50.138 21.396-82.31zM265.263 416.106c-137.386-9.657-185.815-55.338-185.815-55.338-59.626-59.624 0-143.497 0-143.497 7.083 1.605 48.525 46.14 48.525 46.14-11.431 7.492-24.482 35.697-24.482 35.697-18.586 49.028 19.364 66.355 19.364 66.355 57.377 22.347 71.744-34.56 71.744-34.56 7.76 17.073 63.772 71.202 70.665 78.094 6.868 6.884-.001 7.11-.001 7.11zm171.41-63.557c-.1 1.85-.257 3.697-.533 5.528-1.057 7.163-2.938 14.048-7.18 20.038-2.405 3.393-5.08 6.506-8.912 8.52-3.787 2.012-7.366 4.397-11.119 6.49-2.242 1.256-4.645 2.203-7.205 2.673a5.896 5.896 0 0 0-1.605.58c-1.732.94-3.586 1.304-5.507 1.658-2.377.43-4.668 1.356-6.958 2.16-4.68 1.664-9.455 2.793-14.423 3.16-2.78.215-5.533.664-8.298 1.038-2.545.355-5.09.8-7.65 1.094-.447.049-1.293-.256-1.398-.569-.787-2.545-2.604-4.414-4.278-6.427 3.554-7.044 8.092-13.386 12.349-20.129.41.68.679 1.26 1.073 1.728 1.204 1.404 2.452 2.769 3.696 4.133.332.351.851.574 1.152.961 2.325 3.13 5.733 4.246 9.332 4.71 6.101.76 12.123.193 18.077-1.31.354-.084.682-.27 1.01-.387 3.675-1.376 8.173-4.3 10.808-8.1 3.813-4.228 5.257-9.855 5.61-15.61.027-.424-.794-11.953-4.279-16.443-1.724-2.223-3.475-4.369-5.8-5.995-.711-.495-1.388-1.028-2.432-1.801 2.153-2.162 3.785-3.855 5.448-5.514 1-1.004 2.058-1.984 3.1-2.94 1.721-1.62 3.433-3.225 5.685-4.143.66-.27 1.148-.857 1.781-1.19 1.261-.681 2.516-1.355 3.837-1.886 2.18-.877 4.44-1.598 6.616-2.462 4.12-1.602 4.365-1.639 6.081 2.85 1.325 3.474 1.66 7.115 2.176 10.67.477 3.335-.154 14.711-.254 16.915z"/></g></svg>